# xmcd CD database file
#
# Track frame offsets:
#        183
#        13355
#        26633
#        40533
#        55345
#        68158
#        79990
#        95275
#        109405
#        123858
#        135550
#
# Disc length: 1960 seconds
#
# Revision: 0
# Processed by: cddbd v1.5.2PL0 Copyright (c) Steve Scherf et al.
# Submitted via: CUERipper 2.1.5
#
DISCID=9007a60b
DTITLE=Otis Redding and Carla Thomas - King and Queen
DYEAR=1967
DGENRE=Blues
TTITLE0=Knock on Wood
TTITLE1=Let Me Be Good to You
TTITLE2=Tramp
TTITLE3=Tell It Like It Is
TTITLE4=When Something Is Wrong With My Baby
TTITLE5=Lovey Dovey
TTITLE6=New Year's Resolution
TTITLE7=It Takes Two
TTITLE8=Are You Lonely for Me Baby
TTITLE9=Bring It on Home to Me
TTITLE10=Ooh Carla, Ooh Otis
EXTD=
EXTT0=
EXTT1=
EXTT2=
EXTT3=
EXTT4=
EXTT5=
EXTT6=
EXTT7=
EXTT8=
EXTT9=
EXTT10=
PLAYORDER=
